<?xml version="1.0" encoding="UTF-8"?>
<!--Generator: Apple Native CoreSVG 326-->
<!DOCTYPE svg
PUBLIC "-//W3C//DTD SVG 1.1//EN"
       "http://www.w3.org/Graphics/SVG/1.1/DTD/svg11.dtd">
<svg version="1.1" xmlns="http://www.w3.org/2000/svg" xmlns:xlink="http://www.w3.org/1999/xlink" viewBox="0 0 19.7656 12.2363">
 <g>
  <rect height="12.2363" opacity="0" width="19.7656" x="0" y="0"/>
  <path d="M2.49023 12.2266L16.9141 12.2266C18.5742 12.2266 19.4043 11.4062 19.4043 9.76562L19.4043 2.45117C19.4043 0.820312 18.5742 0 16.9141 0L2.49023 0C0.820312 0 0 0.810547 0 2.45117L0 9.76562C0 11.4062 0.820312 12.2266 2.49023 12.2266ZM2.50977 10.8203C1.80664 10.8203 1.40625 10.4395 1.40625 9.69727L1.40625 2.5293C1.40625 1.78711 1.80664 1.40625 2.50977 1.40625L16.8945 1.40625C17.5977 1.40625 17.998 1.78711 17.998 2.5293L17.998 9.69727C17.998 10.4395 17.5977 10.8203 16.8945 10.8203ZM3.18359 4.36523L3.91602 4.36523C4.13086 4.36523 4.25781 4.22852 4.25781 4.01367L4.25781 3.28125C4.25781 3.06641 4.13086 2.92969 3.91602 2.92969L3.18359 2.92969C2.96875 2.92969 2.83203 3.06641 2.83203 3.28125L2.83203 4.01367C2.83203 4.22852 2.96875 4.36523 3.18359 4.36523ZM5.64453 4.36523L6.37695 4.36523C6.5918 4.36523 6.71875 4.22852 6.71875 4.01367L6.71875 3.28125C6.71875 3.06641 6.5918 2.92969 6.37695 2.92969L5.64453 2.92969C5.42969 2.92969 5.29297 3.06641 5.29297 3.28125L5.29297 4.01367C5.29297 4.22852 5.42969 4.36523 5.64453 4.36523ZM8.10547 4.36523L8.83789 4.36523C9.05273 4.36523 9.17969 4.22852 9.17969 4.01367L9.17969 3.28125C9.17969 3.06641 9.05273 2.92969 8.83789 2.92969L8.10547 2.92969C7.89062 2.92969 7.75391 3.06641 7.75391 3.28125L7.75391 4.01367C7.75391 4.22852 7.89062 4.36523 8.10547 4.36523ZM10.5664 4.36523L11.2988 4.36523C11.5137 4.36523 11.6406 4.22852 11.6406 4.01367L11.6406 3.28125C11.6406 3.06641 11.5137 2.92969 11.2988 2.92969L10.5664 2.92969C10.3516 2.92969 10.2148 3.06641 10.2148 3.28125L10.2148 4.01367C10.2148 4.22852 10.3516 4.36523 10.5664 4.36523ZM13.0273 4.36523L13.7598 4.36523C13.9746 4.36523 14.1016 4.22852 14.1016 4.01367L14.1016 3.28125C14.1016 3.06641 13.9746 2.92969 13.7598 2.92969L13.0273 2.92969C12.8125 2.92969 12.6758 3.06641 12.6758 3.28125L12.6758 4.01367C12.6758 4.22852 12.8125 4.36523 13.0273 4.36523ZM15.4883 4.36523L16.2207 4.36523C16.4355 4.36523 16.5625 4.22852 16.5625 4.01367L16.5625 3.28125C16.5625 3.06641 16.4355 2.92969 16.2207 2.92969L15.4883 2.92969C15.2734 2.92969 15.1367 3.06641 15.1367 3.28125L15.1367 4.01367C15.1367 4.22852 15.2734 4.36523 15.4883 4.36523ZM3.18359 6.82617L3.91602 6.82617C4.13086 6.82617 4.25781 6.68945 4.25781 6.47461L4.25781 5.74219C4.25781 5.52734 4.13086 5.39062 3.91602 5.39062L3.18359 5.39062C2.96875 5.39062 2.83203 5.52734 2.83203 5.74219L2.83203 6.47461C2.83203 6.68945 2.96875 6.82617 3.18359 6.82617ZM5.64453 6.82617L6.37695 6.82617C6.5918 6.82617 6.71875 6.68945 6.71875 6.47461L6.71875 5.74219C6.71875 5.52734 6.5918 5.39062 6.37695 5.39062L5.64453 5.39062C5.42969 5.39062 5.29297 5.52734 5.29297 5.74219L5.29297 6.47461C5.29297 6.68945 5.42969 6.82617 5.64453 6.82617ZM8.10547 6.82617L8.83789 6.82617C9.05273 6.82617 9.17969 6.68945 9.17969 6.47461L9.17969 5.74219C9.17969 5.52734 9.05273 5.39062 8.83789 5.39062L8.10547 5.39062C7.89062 5.39062 7.75391 5.52734 7.75391 5.74219L7.75391 6.47461C7.75391 6.68945 7.89062 6.82617 8.10547 6.82617ZM10.5664 6.82617L11.2988 6.82617C11.5137 6.82617 11.6406 6.68945 11.6406 6.47461L11.6406 5.74219C11.6406 5.52734 11.5137 5.39062 11.2988 5.39062L10.5664 5.39062C10.3516 5.39062 10.2148 5.52734 10.2148 5.74219L10.2148 6.47461C10.2148 6.68945 10.3516 6.82617 10.5664 6.82617ZM13.0273 6.82617L13.7598 6.82617C13.9746 6.82617 14.1016 6.68945 14.1016 6.47461L14.1016 5.74219C14.1016 5.52734 13.9746 5.39062 13.7598 5.39062L13.0273 5.39062C12.8125 5.39062 12.6758 5.52734 12.6758 5.74219L12.6758 6.47461C12.6758 6.68945 12.8125 6.82617 13.0273 6.82617ZM15.4883 6.82617L16.2207 6.82617C16.4355 6.82617 16.5625 6.68945 16.5625 6.47461L16.5625 5.74219C16.5625 5.52734 16.4355 5.39062 16.2207 5.39062L15.4883 5.39062C15.2734 5.39062 15.1367 5.52734 15.1367 5.74219L15.1367 6.47461C15.1367 6.68945 15.2734 6.82617 15.4883 6.82617ZM3.18359 9.28711L3.91602 9.28711C4.13086 9.28711 4.25781 9.15039 4.25781 8.93555L4.25781 8.20312C4.25781 7.98828 4.13086 7.85156 3.91602 7.85156L3.18359 7.85156C2.96875 7.85156 2.83203 7.98828 2.83203 8.20312L2.83203 8.93555C2.83203 9.15039 2.96875 9.28711 3.18359 9.28711ZM5.73242 9.28711L13.6621 9.28711C13.9453 9.28711 14.1016 9.12109 14.1016 8.84766L14.1016 8.30078C14.1016 8.01758 13.9453 7.85156 13.6621 7.85156L5.73242 7.85156C5.45898 7.85156 5.29297 8.01758 5.29297 8.30078L5.29297 8.84766C5.29297 9.12109 5.45898 9.28711 5.73242 9.28711ZM15.4883 9.28711L16.2207 9.28711C16.4355 9.28711 16.5625 9.15039 16.5625 8.93555L16.5625 8.20312C16.5625 7.98828 16.4355 7.85156 16.2207 7.85156L15.4883 7.85156C15.2734 7.85156 15.1367 7.98828 15.1367 8.20312L15.1367 8.93555C15.1367 9.15039 15.2734 9.28711 15.4883 9.28711Z" fill="black" fill-opacity="0.85"/>
 </g>
</svg>
