<?xml version="1.0" encoding="UTF-8"?>
<!--Generator: Apple Native CoreSVG 326-->
<!DOCTYPE svg
PUBLIC "-//W3C//DTD SVG 1.1//EN"
       "http://www.w3.org/Graphics/SVG/1.1/DTD/svg11.dtd">
<svg version="1.1" xmlns="http://www.w3.org/2000/svg" xmlns:xlink="http://www.w3.org/1999/xlink" viewBox="0 0 16.0354 14.52">
 <g>
  <rect height="14.52" opacity="0" width="16.0354" x="0" y="0"/>
  <path d="M0.727639 5.75121C-0.454001 6.29808-0.12197 7.88988 1.18662 7.89964L6.53819 7.91918C6.63584 7.91918 6.65537 7.94847 6.65537 8.03636L6.67491 13.3586C6.68467 14.7063 8.296 14.9602 8.88194 13.7004L14.3995 1.76683C14.9855 0.516832 13.9991-0.391371 12.7394 0.194567ZM2.29014 6.53246C2.27061 6.53246 2.26084 6.51293 2.29014 6.50316L12.8272 1.718C12.8565 1.69847 12.8761 1.70824 12.8468 1.7473L8.04209 12.2649C8.03233 12.2942 8.02256 12.2942 8.02256 12.2649L8.06162 7.12816C8.06162 6.75707 7.79795 6.49339 7.42686 6.49339Z" fill="black" fill-opacity="0.85"/>
 </g>
</svg>
