<?xml version="1.0" encoding="UTF-8"?>
<!--Generator: Apple Native CoreSVG 326-->
<!DOCTYPE svg
PUBLIC "-//W3C//DTD SVG 1.1//EN"
       "http://www.w3.org/Graphics/SVG/1.1/DTD/svg11.dtd">
<svg version="1.1" xmlns="http://www.w3.org/2000/svg" xmlns:xlink="http://www.w3.org/1999/xlink" viewBox="0 0 18.4766 14.248">
 <g>
  <rect height="14.248" opacity="0" width="18.4766" x="0" y="0"/>
  <path d="M0.947266 2.70508L0.947266 3.92578L17.1777 3.92578L17.1777 2.70508ZM2.49023 14.248L15.625 14.248C17.2949 14.248 18.1152 13.4277 18.1152 11.7871L18.1152 2.4707C18.1152 0.830078 17.2949 0.00976562 15.625 0.00976562L2.49023 0.00976562C0.830078 0.00976562 0 0.830078 0 2.4707L0 11.7871C0 13.4277 0.830078 14.248 2.49023 14.248ZM2.50977 12.832C1.80664 12.832 1.40625 12.4512 1.40625 11.7188L1.40625 2.53906C1.40625 1.79688 1.80664 1.42578 2.50977 1.42578L15.6055 1.42578C16.3086 1.42578 16.709 1.79688 16.709 2.53906L16.709 11.7188C16.709 12.4512 16.3086 12.832 15.6055 12.832Z" fill="black" fill-opacity="0.85"/>
  <path d="M9.0625 11.377C9.43359 11.377 9.75586 11.0645 9.75586 10.7031L9.75586 8.32031L9.69727 7.11914L10.1465 7.59766L11.1816 8.63281C11.3086 8.76953 11.4844 8.83789 11.6504 8.83789C12.0215 8.83789 12.2852 8.58398 12.2852 8.23242C12.2852 8.03711 12.2168 7.89062 12.0801 7.76367L9.57031 5.45898C9.38477 5.2832 9.23828 5.22461 9.0625 5.22461C8.87695 5.22461 8.74023 5.2832 8.55469 5.45898L6.04492 7.76367C5.89844 7.89062 5.83008 8.03711 5.83008 8.23242C5.83008 8.58398 6.09375 8.83789 6.46484 8.83789C6.63086 8.83789 6.80664 8.76953 6.94336 8.63281L7.96875 7.59766L8.41797 7.11914L8.36914 8.32031L8.36914 10.7031C8.36914 11.0645 8.68164 11.377 9.0625 11.377Z" fill="black" fill-opacity="0.85"/>
 </g>
</svg>
