<?xml version="1.0" encoding="UTF-8"?>
<!--Generator: Apple Native CoreSVG 326-->
<!DOCTYPE svg
PUBLIC "-//W3C//DTD SVG 1.1//EN"
       "http://www.w3.org/Graphics/SVG/1.1/DTD/svg11.dtd">
<svg version="1.1" xmlns="http://www.w3.org/2000/svg" xmlns:xlink="http://www.w3.org/1999/xlink" viewBox="0 0 18.4766 19.4629">
 <g>
  <rect height="19.4629" opacity="0" width="18.4766" x="0" y="0"/>
  <path d="M15.1367 6.14258L17.6465 9.19922C18.0176 9.6582 18.1152 10.0391 18.1152 10.791L18.1152 15.4102C18.1152 17.0508 17.2949 17.8711 15.625 17.8711L2.49023 17.8711C0.830078 17.8711 0 17.0508 0 15.4102L0 10.791C0 10.0391 0.107422 9.6582 0.478516 9.19922L2.97852 6.14258C3.94531 4.96094 4.3457 4.59961 5.78125 4.59961L6.83594 4.59961L6.83594 5.82031L5.69336 5.82031C5.15625 5.82031 4.72656 6.00586 4.3457 6.48438L1.63086 9.88281C1.48438 10.0684 1.54297 10.3125 1.82617 10.3125L6.71875 10.3125C7.1582 10.3125 7.36328 10.6543 7.36328 10.9961L7.36328 11.0156C7.36328 11.8262 8.00781 12.7637 9.0625 12.7637C10.1172 12.7637 10.752 11.8262 10.752 11.0156L10.752 10.9961C10.752 10.6543 10.9668 10.3125 11.3965 10.3125L16.2988 10.3125C16.5723 10.3125 16.6309 10.0684 16.4941 9.88281L13.7793 6.48438C13.3984 6.00586 12.959 5.82031 12.4219 5.82031L11.2891 5.82031L11.2891 4.59961L12.334 4.59961C13.7793 4.59961 14.1699 4.96094 15.1367 6.14258ZM1.40625 11.5918L1.40625 15.3418C1.40625 16.084 1.80664 16.4551 2.50977 16.4551L15.6055 16.4551C16.3086 16.4551 16.709 16.084 16.709 15.3418L16.709 11.5918L12.0703 11.5918C11.8457 12.998 10.6445 14.0527 9.0625 14.0527C7.48047 14.0527 6.26953 12.998 6.04492 11.5918Z" fill="black" fill-opacity="0.85"/>
  <path d="M9.0625 0C8.68164 0 8.36914 0.302734 8.36914 0.673828L8.36914 7.36328L8.41797 8.52539L8.02734 8.10547L6.95312 6.93359C6.82617 6.79688 6.64062 6.72852 6.47461 6.72852C6.10352 6.72852 5.83984 6.98242 5.83984 7.33398C5.83984 7.5293 5.91797 7.66602 6.04492 7.80273L8.55469 10.1953C8.73047 10.3711 8.87695 10.4297 9.0625 10.4297C9.23828 10.4297 9.38477 10.3711 9.57031 10.1953L12.0703 7.80273C12.207 7.66602 12.2754 7.5293 12.2754 7.33398C12.2754 6.98242 12.002 6.72852 11.6406 6.72852C11.4746 6.72852 11.2891 6.79688 11.1719 6.93359L10.0879 8.10547L9.69727 8.52539L9.75586 7.36328L9.75586 0.673828C9.75586 0.302734 9.43359 0 9.0625 0Z" fill="black" fill-opacity="0.85"/>
 </g>
</svg>
